<!-- <svg 
   xmlns="http://www.w3.org/2000/svg"    
   height="16" 
   width="16" 
   version="1" 
   viewBox="0 0 16 16">
   <path color="#000" fill="none" d="M-62.897-32.993h163.31v97.986h-163.31z"/>
   <path style="block-progression:tb;text-transform:none;text-indent:0" d="M8.404 1c-1.732 0-3.2 1.266-3.2 2.9.012.516.058 1.153.366 2.5v.033l.034.034c.1.283.243.445.433.666s.417.482.633.7l.067.067c.043.186.095.387.133.567.103.478.093.817.067.933-.744.26-1.67.572-2.5.933-.466.203-.888.384-1.233.6-.345.217-.688.38-.8.867-.16.633-.2.754-.4 1.533-.027.21.083.43.267.534C3.78 14.68 6.096 15.01 8.405 15s4.606-.356 6.066-1.133c.117-.074.143-.11.133-.234-.043-.69-.08-1.367-.133-1.766a.537.537 0 0 0-.133-.267c-.464-.554-1.157-.892-1.967-1.233-.74-.312-1.607-.635-2.466-1-.05-.107-.096-.42 0-.9.025-.13.066-.268.1-.4.08-.09.143-.165.233-.267.19-.218.396-.447.566-.667s.31-.408.4-.666l.034-.034c.348-1.406.348-1.992.366-2.5V3.9c0-1.634-1.468-2.9-3.2-2.9z" fill="#4d4d4d" />
</svg> -->

<svg 
   xmlns="http://www.w3.org/2000/svg" 
   viewbox="0 0 16 16" 
   height="16" 
   width="16" 
   version="1.1">
   <path d="m10 1c-1.75 0-3 1.43-3 2.8 0 1.4 0.1 2.4 0.8 3.5 0.2 0.29 0.5 0.35 0.7 0.6 0.135 0.5 0.24 1 0.1 1.5-0.28 0.1-0.525 0.22-0.8 0.33-0.085-0.15-0.23-0.2-0.47-0.4-0.73-0.44-1.56-0.75-2.33-1.04-0.1-0.37-0.1-0.65 0-1 0.156-0.166 0.37-0.27 0.5-0.43 0.46-0.6 0.5-1.654 0.5-2.37 0-1.06-0.954-1.9-2-1.9-1.17 0-2 1-2 1.9 0 0.93 0.034 1.64 0.5 2.37 0.13 0.2 0.367 0.26 0.5 0.43 0.1 0.33 0.1 0.654 0 1-0.85 0.3-1.6 0.64-2.34 1.04-0.57 0.4-0.52 0.205-0.66 1.53-0.11 1.06 2.335 1.13 4 1.13 0.06 0 0.11 0 0.17 0-0.054 0.274-0.1 0.63-0.17 1.3-0.16 1.59 3.5 1.7 6 1.7s6.16-0.1 6-1.7c-0.215-2-0.23-1.71-1-2.3-1.1-0.654-2.45-1.17-3.6-1.6-0.15-0.56-0.04-0.97 0.1-1.5 0.235-0.25 0.5-0.36 0.7-0.6 0.7-0.885 0.8-2.425 0.8-3.5 0-1.6-1.43-2.8-3-2.8z"/>
</svg>